<svg xmlns="http://www.w3.org/2000/svg" width="14" height="14" viewBox="0 0 14 14">
  <path id="language-icon" d="M8.993,2A7,7,0,1,0,16,9,7,7,0,0,0,8.993,2Zm4.851,4.2H11.779a10.954,10.954,0,0,0-.966-2.492A5.621,5.621,0,0,1,13.844,6.2ZM9,3.428A9.861,9.861,0,0,1,10.337,6.2H7.663A9.861,9.861,0,0,1,9,3.428ZM3.582,10.4a5.476,5.476,0,0,1,0-2.8H5.948A11.561,11.561,0,0,0,5.85,9a11.561,11.561,0,0,0,.1,1.4Zm.574,1.4H6.221a10.954,10.954,0,0,0,.966,2.492A5.591,5.591,0,0,1,4.156,11.8ZM6.221,6.2H4.156A5.591,5.591,0,0,1,7.187,3.708,10.954,10.954,0,0,0,6.221,6.2ZM9,14.572A9.861,9.861,0,0,1,7.663,11.8h2.674A9.861,9.861,0,0,1,9,14.572ZM10.638,10.4H7.362A10.3,10.3,0,0,1,7.25,9a10.209,10.209,0,0,1,.112-1.4h3.276A10.209,10.209,0,0,1,10.75,9,10.3,10.3,0,0,1,10.638,10.4Zm.175,3.892a10.954,10.954,0,0,0,.966-2.492h2.065A5.621,5.621,0,0,1,10.813,14.292ZM12.052,10.4a11.561,11.561,0,0,0,.1-1.4,11.561,11.561,0,0,0-.1-1.4h2.366a5.476,5.476,0,0,1,0,2.8Z" transform="translate(-2 -2)" fill="#a64bf4" opacity="0.9"/>
</svg>
